<svg width="24" height="24" viewBox="0 0 24 24" fill="none" xmlns="http://www.w3.org/2000/svg">
<path d="M18 8C18 6.4087 17.3679 4.88258 16.2426 3.75736C15.1174 2.63214 13.5913 2 12 2C10.4087 2 8.88258 2.63214 7.75736 3.75736C6.63214 4.88258 6 6.4087 6 8C6 15 3 17 3 17H21C21 17 18 15 18 8Z" stroke="#9B9B9B" stroke-width="2.33333" stroke-linecap="round" stroke-linejoin="round"/>
<path fill-rule="evenodd" clip-rule="evenodd" d="M9.68498 19.9909C10.2423 19.6676 10.9562 19.8574 11.2795 20.4147C11.3528 20.541 11.4579 20.6458 11.5844 20.7187C11.711 20.7915 11.8544 20.8299 12.0004 20.8299C12.1464 20.8299 12.2898 20.7915 12.4163 20.7187C12.5428 20.6458 12.648 20.541 12.7212 20.4147C13.0445 19.8574 13.7584 19.6676 14.3158 19.9909C14.8731 20.3143 15.0628 21.0282 14.7395 21.5855C14.4612 22.0654 14.0616 22.4637 13.5809 22.7406C13.1002 23.0175 12.5551 23.1632 12.0004 23.1632C11.4456 23.1632 10.9006 23.0175 10.4198 22.7406C9.93912 22.4637 9.53957 22.0654 9.26121 21.5855C8.9379 21.0282 9.12763 20.3143 9.68498 19.9909Z" fill="#9B9B9B"/>
</svg>
