<svg width="79" height="24" viewBox="0 0 79 24" fill="none" xmlns="http://www.w3.org/2000/svg">
<path d="M30.0684 20.7822C29.8177 20.7822 29.599 20.7663 29.4121 20.7344C29.2207 20.707 29.0566 20.6683 28.9199 20.6182V19.2441C29.0658 19.2806 29.223 19.3125 29.3916 19.3398C29.5602 19.3672 29.7402 19.3809 29.9316 19.3809C30.1823 19.3809 30.4102 19.333 30.6152 19.2373C30.8203 19.1416 30.9821 18.9684 31.1006 18.7178C31.2236 18.4671 31.2852 18.1139 31.2852 17.6582V8.00586H32.9258V17.6035C32.9258 18.3464 32.8073 18.9502 32.5703 19.415C32.3333 19.8844 32.0007 20.2285 31.5723 20.4473C31.1439 20.6706 30.6426 20.7822 30.0684 20.7822ZM42.0449 14.1992C42.0449 14.8281 41.9629 15.3864 41.7988 15.874C41.6348 16.3617 41.3955 16.7741 41.0811 17.1113C40.7666 17.444 40.3883 17.6992 39.9463 17.877C39.5042 18.0501 39.0052 18.1367 38.4492 18.1367C37.9297 18.1367 37.4535 18.0501 37.0205 17.877C36.5876 17.6992 36.2116 17.444 35.8926 17.1113C35.5781 16.7741 35.3343 16.3617 35.1611 15.874C34.988 15.3864 34.9014 14.8281 34.9014 14.1992C34.9014 13.3652 35.0449 12.6589 35.332 12.0801C35.6237 11.4967 36.0384 11.0524 36.5762 10.7471C37.1139 10.4417 37.7542 10.2891 38.4971 10.2891C39.1943 10.2891 39.8096 10.4417 40.3428 10.7471C40.876 11.0524 41.293 11.4967 41.5938 12.0801C41.8945 12.6634 42.0449 13.3698 42.0449 14.1992ZM36.5557 14.1992C36.5557 14.7507 36.6217 15.2223 36.7539 15.6143C36.8906 16.0062 37.1003 16.307 37.3828 16.5166C37.6654 16.7217 38.0299 16.8242 38.4766 16.8242C38.9232 16.8242 39.2878 16.7217 39.5703 16.5166C39.8529 16.307 40.0602 16.0062 40.1924 15.6143C40.3245 15.2223 40.3906 14.7507 40.3906 14.1992C40.3906 13.6478 40.3245 13.1807 40.1924 12.7979C40.0602 12.4105 39.8529 12.1165 39.5703 11.916C39.2878 11.7109 38.9209 11.6084 38.4697 11.6084C37.8044 11.6084 37.319 11.8317 37.0137 12.2783C36.7083 12.7249 36.5557 13.3652 36.5557 14.1992ZM45.4971 7.36328V9.92676C45.4971 10.223 45.488 10.5146 45.4697 10.8018C45.4561 11.0843 45.4424 11.3053 45.4287 11.4648H45.4971C45.7021 11.1367 45.987 10.861 46.3516 10.6377C46.7207 10.4098 47.1924 10.2959 47.7666 10.2959C48.6644 10.2959 49.3867 10.6263 49.9336 11.2871C50.4805 11.9434 50.7539 12.9163 50.7539 14.2061C50.7539 15.0628 50.6286 15.7829 50.3779 16.3662C50.1273 16.9495 49.7741 17.3916 49.3184 17.6924C48.8672 17.9886 48.3363 18.1367 47.7256 18.1367C47.1514 18.1367 46.6865 18.0319 46.3311 17.8223C45.9801 17.6081 45.7044 17.3597 45.5039 17.0771H45.3877L45.0938 18H43.8906V7.36328H45.4971ZM47.3428 11.6016C46.887 11.6016 46.5247 11.6927 46.2559 11.875C45.9915 12.0573 45.8001 12.3307 45.6816 12.6953C45.5632 13.0553 45.5016 13.5133 45.4971 14.0693V14.2129C45.4971 15.056 45.6292 15.7008 45.8936 16.1475C46.1624 16.5941 46.6501 16.8174 47.3564 16.8174C47.917 16.8174 48.3477 16.5918 48.6484 16.1406C48.9492 15.6849 49.0996 15.0332 49.0996 14.1855C49.0996 13.3288 48.9492 12.6839 48.6484 12.251C48.3522 11.818 47.917 11.6016 47.3428 11.6016ZM58.7998 17.9932L57.8428 14.4727C57.7972 14.2995 57.7425 14.0898 57.6787 13.8438C57.6149 13.5977 57.5511 13.3447 57.4873 13.085C57.4235 12.8206 57.3643 12.5768 57.3096 12.3535C57.2594 12.1302 57.2207 11.957 57.1934 11.834H57.1387C57.1159 11.957 57.0794 12.1302 57.0293 12.3535C56.9792 12.5768 56.9222 12.8206 56.8584 13.085C56.7946 13.3493 56.7308 13.6068 56.667 13.8574C56.6077 14.1081 56.5531 14.3223 56.5029 14.5L55.498 17.9932H53.7344L51.6152 10.4258H53.2422L54.2266 14.1855C54.2904 14.4408 54.3519 14.7165 54.4111 15.0127C54.4749 15.3089 54.5296 15.5915 54.5752 15.8604C54.6208 16.1292 54.6549 16.3503 54.6777 16.5234H54.7324C54.7507 16.4004 54.7757 16.2454 54.8076 16.0586C54.8395 15.8672 54.876 15.6689 54.917 15.4639C54.958 15.2542 54.999 15.0583 55.04 14.876C55.0811 14.6891 55.1198 14.5387 55.1562 14.4248L56.3184 10.4258H58.0752L59.1895 14.4248C59.2396 14.598 59.2943 14.8167 59.3535 15.0811C59.4128 15.3408 59.4652 15.6029 59.5107 15.8672C59.5609 16.127 59.5928 16.3434 59.6064 16.5166H59.6611C59.6794 16.3617 59.7113 16.152 59.7568 15.8877C59.807 15.6188 59.8639 15.334 59.9277 15.0332C59.9915 14.7279 60.0576 14.4453 60.126 14.1855L61.1309 10.4258H62.7305L60.5977 17.9932H58.7998ZM66.9961 10.2891C67.9531 10.2891 68.6755 10.501 69.1631 10.9248C69.6553 11.3486 69.9014 12.0094 69.9014 12.9072V18H68.7598L68.4521 16.9268H68.3975C68.1833 17.2002 67.9622 17.4258 67.7344 17.6035C67.5065 17.7812 67.2422 17.9134 66.9414 18C66.6452 18.0911 66.2829 18.1367 65.8545 18.1367C65.4033 18.1367 65 18.0547 64.6445 17.8906C64.2891 17.722 64.0088 17.4668 63.8037 17.125C63.5986 16.7832 63.4961 16.3503 63.4961 15.8262C63.4961 15.0469 63.7855 14.4613 64.3643 14.0693C64.9476 13.6774 65.8271 13.4609 67.0029 13.4199L68.3154 13.3721V12.9756C68.3154 12.4515 68.1924 12.0778 67.9463 11.8545C67.7048 11.6312 67.363 11.5195 66.9209 11.5195C66.5426 11.5195 66.1758 11.5742 65.8203 11.6836C65.4648 11.793 65.1185 11.9274 64.7812 12.0869L64.2617 10.9521C64.6309 10.7562 65.0501 10.5967 65.5195 10.4736C65.9935 10.3506 66.4857 10.2891 66.9961 10.2891ZM68.3086 14.3838L67.3311 14.418C66.529 14.4453 65.9661 14.582 65.6426 14.8281C65.319 15.0742 65.1572 15.4115 65.1572 15.8398C65.1572 16.2135 65.2689 16.487 65.4922 16.6602C65.7155 16.8288 66.0094 16.9131 66.374 16.9131C66.93 16.9131 67.3903 16.7559 67.7549 16.4414C68.124 16.1224 68.3086 15.6553 68.3086 15.04V14.3838ZM71.0088 10.4326H72.7588L74.3105 14.7529C74.3789 14.9489 74.4404 15.1426 74.4951 15.334C74.5544 15.5208 74.6045 15.7054 74.6455 15.8877C74.6911 16.07 74.7275 16.2523 74.7549 16.4346H74.7959C74.8415 16.1976 74.9053 15.9333 74.9873 15.6416C75.0739 15.3454 75.1696 15.0492 75.2744 14.7529L76.7646 10.4326H78.4941L75.2471 19.0391C75.0602 19.5312 74.8301 19.9505 74.5566 20.2969C74.2878 20.6478 73.9688 20.9121 73.5996 21.0898C73.2305 21.2721 72.8089 21.3633 72.335 21.3633C72.1071 21.3633 71.9089 21.3496 71.7402 21.3223C71.5716 21.2995 71.4281 21.2744 71.3096 21.2471V19.9619C71.4053 19.9847 71.526 20.0052 71.6719 20.0234C71.8177 20.0417 71.9681 20.0508 72.123 20.0508C72.4102 20.0508 72.6585 19.9938 72.8682 19.8799C73.0778 19.766 73.2555 19.6042 73.4014 19.3945C73.5472 19.1895 73.668 18.9548 73.7637 18.6904L74.0303 17.9795L71.0088 10.4326Z" fill="#5E50A1"/>
<path d="M12 2L2 7L12 12L22 7L12 2Z" stroke="#5E50A1" stroke-width="2" stroke-linecap="round" stroke-linejoin="round"/>
<path d="M2 17L12 22L22 17" stroke="#5E50A1" stroke-width="2" stroke-linecap="round" stroke-linejoin="round"/>
<path d="M2 12L12 17L22 12" stroke="#5E50A1" stroke-width="2" stroke-linecap="round" stroke-linejoin="round"/>
</svg>
